<svg height="509pt" viewBox="-83 0 509 509.248" width="509pt" xmlns="http://www.w3.org/2000/svg" fill="#888"><path d="m320.128906 193.9375-148.6875-148.691406-58.175781 58.179687-22.625-22.625 80.800781-80.800781 171.308594 171.3125zm0 0"/><path d="m.125 171.3125 22.625-22.628906 22.628906 22.628906-22.628906 22.625zm0 0"/><path d="m45.394531 126.058594 22.625-22.628906 22.628907 22.628906-22.628907 22.625zm0 0"/><path d="m171.441406 509.246094-171.3125-171.308594 22.621094-22.625 148.691406 148.6875 58.175782-58.175781 22.621093 22.625zm0 0"/><g ><path d="m252.238281 383.203125 22.625-22.628906 22.628907 22.628906-22.628907 22.625zm0 0"/><path d="m297.496094 337.9375 22.625-22.628906 22.628906 22.628906-22.628906 22.625zm0 0"/></g></svg>